<?xml version="1.0" encoding="UTF-8" standalone="no"?>
<!-- Created with Inkscape (http://www.inkscape.org/) -->
<svg
   xmlns:dc="http://purl.org/dc/elements/1.1/"
   xmlns:cc="http://creativecommons.org/ns#"
   xmlns:rdf="http://www.w3.org/1999/02/22-rdf-syntax-ns#"
   xmlns:svg="http://www.w3.org/2000/svg"
   xmlns="http://www.w3.org/2000/svg"
   xmlns:sodipodi="http://sodipodi.sourceforge.net/DTD/sodipodi-0.dtd"
   xmlns:inkscape="http://www.inkscape.org/namespaces/inkscape"
   width="128"
   height="128"
   id="svg3977"
   sodipodi:version="0.32"
   inkscape:version="0.46"
   version="1.0"
   sodipodi:docname="toy_sailboat.svg"
   inkscape:output_extension="org.inkscape.output.svg.inkscape"
   inkscape:export-filename="C:\joanna\Gfx\drawings_vector\pitr_icons\toy_train.png"
   inkscape:export-xdpi="90"
   inkscape:export-ydpi="90">
  <defs
     id="defs3979">
    <inkscape:perspective
       sodipodi:type="inkscape:persp3d"
       inkscape:vp_x="0 : 526.18109 : 1"
       inkscape:vp_y="0 : 1000 : 0"
       inkscape:vp_z="744.09448 : 526.18109 : 1"
       inkscape:persp3d-origin="372.04724 : 350.78739 : 1"
       id="perspective3985" />
  </defs>
  <sodipodi:namedview
     id="base"
     pagecolor="#ffffff"
     bordercolor="#666666"
     borderopacity="1.0"
     gridtolerance="10000"
     guidetolerance="2"
     objecttolerance="10000"
     inkscape:pageopacity="0.0"
     inkscape:pageshadow="2"
     inkscape:zoom="1.4887912"
     inkscape:cx="64"
     inkscape:cy="117.73487"
     inkscape:document-units="px"
     inkscape:current-layer="layer1"
     showgrid="true"
     borderlayer="true"
     inkscape:snap-global="false"
     inkscape:window-width="1280"
     inkscape:window-height="744"
     inkscape:window-x="-4"
     inkscape:window-y="-4">
    <inkscape:grid
       type="xygrid"
       id="grid3987"
       visible="true"
       enabled="true"
       empspacing="4" />
  </sodipodi:namedview>
  <metadata
     id="metadata3982">
    <rdf:RDF>
      <cc:Work
         rdf:about="">
        <dc:format>image/svg+xml</dc:format>
        <dc:type
           rdf:resource="http://purl.org/dc/dcmitype/StillImage" />
      </cc:Work>
    </rdf:RDF>
  </metadata>
  <g
     inkscape:label="Layer 1"
     inkscape:groupmode="layer"
     id="layer1">
    <path
       style="fill:none;fill-rule:evenodd;stroke:#000000;stroke-width:10;stroke-linecap:round;stroke-linejoin:round;stroke-miterlimit:4;stroke-dasharray:none;stroke-opacity:1"
       d="M 96.625 8.65625 C 66.68439 16.138672 41.264114 29.888583 26.3125 58.125 L 71.875 74.625 C 74.825503 52.069781 77.854605 29.516477 96.625 8.65625 z M 101.40625 10.8125 L 97.9375 21.25 C 97.937496 21.249999 120.27419 22.121472 119.40625 21.6875 C 118.5383 21.253528 101.40625 10.8125 101.40625 10.8125 z M 98.78125 21.6875 C 96.843816 23.644558 94.922277 25.739178 93.0625 27.96875 C 84.513115 38.218083 77.444684 51.431287 78.03125 68.40625 C 78.13164 71.311482 78.45208 74.308024 79.03125 77.4375 L 113.96875 90.6875 C 100.54602 71.10689 99.807597 46.339359 98.78125 21.6875 z M 20.375 64.09375 C 18.587507 75.070518 20.931804 83.202629 25.3125 89.5 C 24.058557 89.750978 22.871164 90.017153 21.75 90.34375 C 21.493065 90.418492 21.249721 90.515912 21 90.59375 C 20.703622 90.686114 20.411084 90.778779 20.125 90.875 C 19.844027 90.969542 19.552136 91.058509 19.28125 91.15625 C 19.190912 91.188832 19.089207 91.217101 19 91.25 C 18.521729 91.426654 18.038919 91.628493 17.59375 91.8125 C 17.534191 91.837154 17.465207 91.850245 17.40625 91.875 C 16.893584 92.090147 16.403922 92.311053 15.9375 92.53125 C 15.517894 92.729345 15.121002 92.936868 14.75 93.15625 C 14.738094 93.163324 14.730607 93.180405 14.71875 93.1875 C 14.362322 93.399894 14.032002 93.613445 13.71875 93.84375 C 13.689401 93.865402 13.653979 93.884448 13.625 93.90625 C 13.335219 94.123728 13.066191 94.362233 12.8125 94.59375 C 12.774889 94.628255 12.724335 94.652703 12.6875 94.6875 C 12.451521 94.909509 12.236286 95.141833 12.03125 95.375 C 11.803399 95.634815 11.597694 95.915528 11.40625 96.1875 C 11.392811 96.206551 11.388264 96.230894 11.375 96.25 C 11.329757 96.31527 11.261983 96.371603 11.21875 96.4375 C 11.079563 96.649677 10.962618 96.875621 10.84375 97.09375 C 10.697339 97.363631 10.554486 97.628688 10.4375 97.90625 C 10.411636 97.967172 10.399487 98.0325 10.375 98.09375 C 10.278412 98.33691 10.200696 98.596104 10.125 98.84375 C 10.115198 98.875943 10.103209 98.905241 10.09375 98.9375 C 10.036169 99.132784 9.982835 99.333831 9.9375 99.53125 C 9.8809801 99.779999 9.8192789 100.03001 9.78125 100.28125 C 9.7796958 100.29138 9.782775 100.30237 9.78125 100.3125 C 9.7568423 100.47692 9.7356444 100.64738 9.71875 100.8125 C 9.6260588 101.70854 9.6502623 102.60991 9.75 103.5 C 9.7681107 103.6596 9.7891166 103.81018 9.8125 103.96875 C 9.8431345 104.17923 9.8668802 104.38561 9.90625 104.59375 C 9.9161695 104.64571 9.9270626 104.69821 9.9375 104.75 C 9.9859829 104.99246 10.034517 105.23059 10.09375 105.46875 C 10.112005 105.54199 10.137044 105.61472 10.15625 105.6875 C 10.222779 105.94009 10.297803 106.19126 10.375 106.4375 C 10.377983 106.44701 10.372002 106.45925 10.375 106.46875 C 10.453063 106.71622 10.537462 106.94768 10.625 107.1875 C 16.099005 122.18401 27.139298 121.55883 36.96875 121.59375 C 64.728846 121.69236 80.248316 120.95747 101.5 121.28125 C 112.32952 121.44625 112.37023 119.22761 117.1875 117.78125 C 107.02142 117.3489 101.47432 116.57359 92.9375 113.8125 L 99.90625 115.03125 C 107.61602 113.58016 112.78125 106.12082 112.78125 95.15625 C 95.069993 92.464436 83.625696 86.967644 73.25 81.34375 C 58.397552 73.293341 45.761055 64.972069 20.375 64.09375 z "
       id="path4692" />
    <path
       style="fill:none;fill-rule:evenodd;stroke:#000000;stroke-width:2;stroke-linecap:round;stroke-linejoin:round;stroke-miterlimit:4;stroke-dasharray:none;stroke-opacity:1"
       d="M 72.753501,82.649383 L 102.29248,6.3150116"
       id="path4673"
       sodipodi:nodetypes="cc" />
    <path
       style="fill:#00ffff;fill-rule:evenodd;stroke:#000000;stroke-width:2;stroke-linecap:round;stroke-linejoin:round;stroke-miterlimit:4;stroke-dasharray:none;stroke-opacity:1"
       d="M 98.791801,21.676363 C 86.423686,34.169753 74.34675,52.049412 79.046091,77.441723 C 88.905843,73.820575 101.71197,83.458134 113.98081,90.677859 C 100.55808,71.097246 99.818148,46.328222 98.791801,21.676363 z"
       id="path4677"
       sodipodi:nodetypes="cccc" />
    <path
       style="fill:#ffff00;fill-rule:evenodd;stroke:#000000;stroke-width:2;stroke-linecap:butt;stroke-linejoin:round;stroke-miterlimit:4;stroke-dasharray:none;stroke-opacity:1"
       d="M 20.383336,64.090862 C 63.503704,65.582757 69.716305,88.614921 112.78061,95.159973 C 112.78061,106.12454 107.60685,113.58343 99.897075,115.03452 L 45.576025,105.48714 C 31.842859,98.280067 16.525466,87.781556 20.383336,64.090862 z"
       id="path4587"
       sodipodi:nodetypes="ccccc" />
    <path
       style="fill:#0000ff;fill-rule:evenodd;stroke:#000000;stroke-width:2;stroke-linecap:butt;stroke-linejoin:round;stroke-miterlimit:4;stroke-dasharray:none;stroke-opacity:1"
       d="M 117.17369,117.76795 C 103.02019,117.16602 97.932106,115.96639 81.063819,109.54908 C 70.350687,105.47341 66.754813,97.811359 53.53744,92.524269 C 36.811912,85.833879 23.393128,89.009282 15.947656,92.524269 C 8.8857584,95.858171 8.8556262,102.36726 10.61997,107.20083 C 16.093975,122.19734 27.132967,121.54893 36.962419,121.58385 C 64.722514,121.68246 80.234936,120.96654 101.48662,121.29032 C 112.31614,121.45532 112.35642,119.21431 117.17369,117.76795 z"
       id="path4614"
       sodipodi:nodetypes="cssssssc" />
    <path
       style="fill:#ffffff;fill-rule:evenodd;stroke:#000000;stroke-width:2;stroke-linecap:butt;stroke-linejoin:miter;stroke-miterlimit:4;stroke-dasharray:none;stroke-opacity:1"
       d="M 33.70993,88.62248 C 26.216458,88.689307 20.137696,90.557137 15.949618,92.534317 C 9.2359157,95.703835 8.8846609,101.72734 10.381675,106.46845 C 12.293845,110.91889 18.007165,110.49904 20.175545,103.47033 C 23.396391,109.17961 30.6548,110.40191 36.151432,104.36959 C 41.414607,110.45126 49.769972,110.37681 52.105645,102.22981 C 59.586373,109.7026 62.943279,106.3267 64.982608,103.46276 C 65.386489,101.88425 66.228062,100.45164 63.291415,97.759618 C 60.606127,95.906954 57.49131,94.120444 53.526099,92.534317 C 46.20868,89.607271 39.538187,88.570503 33.70993,88.62248 z"
       id="path4616"
       sodipodi:nodetypes="csccccccsc" />
    <path
       style="fill:#00ffff;fill-rule:evenodd;stroke:#000000;stroke-width:2;stroke-linecap:butt;stroke-linejoin:round;stroke-miterlimit:4;stroke-dasharray:none;stroke-opacity:1"
       d="M 96.621941,8.6572123 C 66.681331,16.139634 41.270146,29.893567 26.318532,58.129984 C 45.525048,56.88181 60.268802,66.072191 71.885558,74.620907 C 74.836062,52.065692 77.851546,29.517439 96.621941,8.6572123 z"
       id="path4675"
       sodipodi:nodetypes="cccc" />
    <path
       style="fill:#ff0000;fill-rule:evenodd;stroke:#000000;stroke-width:2;stroke-linecap:butt;stroke-linejoin:round;stroke-miterlimit:4;stroke-dasharray:none;stroke-opacity:1"
       d="M 99.586193,21.954821 C 99.586193,21.954821 121.93574,22.822765 121.0678,22.388793 C 120.19985,21.954821 103.05797,11.539502 103.05797,11.539502 L 99.586193,21.954821 z"
       id="path4679" />
  </g>
</svg>
